<svg xmlns="http://www.w3.org/2000/svg" version="1.1" xmlns:xlink="http://www.w3.org/1999/xlink" xmlns:svgjs="http://svgjs.dev/svgjs" width="1000" height="1000" viewBox="0 0 1000 1000"><rect width="1000" height="1000" fill="#ffffff"></rect><g transform="matrix(0.7,0,0,0.7,150.0000000000001,106.25)"><svg viewBox="0 0 320 360" data-background-color="#ffffff" preserveAspectRatio="xMidYMid meet" height="1125" width="1000" xmlns="http://www.w3.org/2000/svg" xmlns:xlink="http://www.w3.org/1999/xlink"><g id="tight-bounds" transform="matrix(1,0,0,1,0,0)"><svg viewBox="0 0 320 360" height="360" width="320"><g><svg></svg></g><g><svg viewBox="0 0 320 360" height="360" width="320"><g><path xmlns="http://www.w3.org/2000/svg" d="M20.961 227.22l3.726 4.658-1.863-6.056c-0.466-2.795-3.726 0.466-1.863 1.398M25.153 224.425c1.397 2.329 2.795 4.658 2.795 6.987 0 3.261 2.795 4.658 5.123 5.589-3.261-3.726-5.124-13.974-7.918-12.576M204.017 26.929c7.918 0 15.371-0.932 23.756 0.931 20.495 5.124 37.729 15.371 49.374 29.811l32.606 52.169c1.397 13.042 4.192 27.482 3.726 43.319 3.261 0 2.795-4.658 6.521-5.59-3.726 9.316-5.59 20.961-6.521 34.469-2.329-7.453 0-18.632 0.466-24.687-3.261 5.124-5.124 1.397-5.124-0.932 0.466-3.726-1.397-3.261-2.795-4.658-5.124-4.658-8.384-9.782-12.11-17.7 2.329-6.055 2.795-14.905-4.658-19.563-2.329-1.397-5.124-3.726-6.521-7.453-1.863-5.124-5.124-11.179-4.193-19.097 0.466-2.329-6.987 5.124-11.179 1.863-18.166-12.576-36.332-27.016-58.224-39.127-11.645 0-20.029-4.192-24.221-9.316-3.726-4.658-0.932-10.713 4.658-11.179 3.261 0 6.987-0.932 9.782 0.932 0.466-1.863 2.329-4.192 4.657-4.192M157.904 16.215l0.932 0.466c4.658 0.932 6.987 7.453 12.11 5.124 0 3.261 0.466 6.521-0.466 8.85-1.397 3.726-5.59 3.726-8.85 3.726-31.208-1.863-49.374 11.179-68.471 22.358-5.124 3.261-10.713 5.59-14.906 9.782-20.029 18.632-41.921 35.866-47.045 70.335l-4.192 38.195c-0.466 4.192-5.124 8.384-4.192 13.508l3.26 22.824c-3.261-3.261-5.124 0.932-4.192 2.795 0.466 1.397 2.329 6.055 5.124 1.863 3.726 6.987 7.453 20.495 12.576 26.55 15.837 18.632 36.332 35.4 53.101 52.169 4.192-0.932 7.453-0.932 8.384-3.727 1.397 2.795-1.397 5.59-3.726 6.056 7.453 4.658 15.837 8.85 27.016 9.781 14.44 0.932 27.948 3.261 40.524 6.522 6.521-1.863 13.042-2.795 20.029-3.261 2.329 0 3.726-3.726 6.521-4.658l0.466-4.658c2.795 4.192 2.329-1.397 0.466-4.192 3.261 2.795 4.192 5.124 5.589 6.987 0-1.397 3.726-6.521 3.727-0.466l0.931-6.055c1.397-0.932 1.863 5.124 3.261 0.931 1.397-4.192 4.192-0.932 6.987-2.329-0.932 1.863-0.466 5.59 2.794 3.261l3.727-3.261c2.329 5.59 6.055 3.261 7.918 2.329 20.495-13.042 40.99-28.413 60.553-43.784l-0.466 6.055 2.329-7.453c2.329 2.329 4.192 0.466 5.124-0.931 2.795-4.658 6.521-9.316 12.577-13.508-7.453 20.029-16.303 35.866-27.482 48.908l-4.658 5.59c0 3.261-0.932 7.453-4.658 7.918-1.863 0.466-5.59-0.932-8.384 1.863-1.397 1.863 3.261 5.59-0.466 2.795-3.261-2.329-6.521 0-10.248 0.932-2.795 0.932 1.863 3.726 2.795 5.589 0.932 1.863 1.863 3.726 1.398 6.056l-5.124-5.59c-6.055 3.261-9.782 9.316-14.906 13.974-2.329 1.863-1.397 5.124-1.397 7.918-3.261 0-6.987-0.932-8.85 0.932-1.397 1.863-0.932 4.658-0.932 7.453-4.658-0.466-5.124-7.453-9.315-6.056-4.192 0.932-8.85 1.397-12.577 3.727 2.795 5.59-4.658 2.329-3.726 3.26-6.987-4.192-13.042-7.453-20.495-4.658-15.837-5.124-35.4-2.795-49.84-0.931 0-2.329 0.466-4.658-0.466-5.124-0.932 2.329-3.726 1.397-3.26 1.397-8.85-6.055-17.7-9.782-27.016-14.905-8.384 0.932-16.303-3.261-18.632-5.59-6.521-6.055-13.974-2.795-20.029-4.192-13.042-3.261-17.7-16.769-19.098-26.084-0.932-4.658-4.658-6.521-6.055-6.056-6.055-19.563-15.371-37.263-22.824-55.429-1.863-4.658-1.397-9.316-1.397-14.44 2.329 0.932 4.658 0.466 4.192-2.794-2.329-15.371-7.918-27.016-13.974-38.195 3.261-15.837 3.726-34.469 11.179-48.443 6.521-12.576 18.632-19.098 27.016-29.811 2.795-3.726 2.795-8.85 5.59-12.11 9.316-9.316 18.632-19.098 28.879-27.482 4.658-3.726 10.247 0 17.234-1.397 2.329-8.384 11.645-15.837 20.495-13.508 3.726 0.932 11.179-8.85 13.508-9.782 3.726-1.397 1.863 3.726 1.863 6.987 8.85-6.987 20.961-10.713 32.14-14.906" fill="#636365" fill-rule="nonzero" stroke="none" stroke-width="1" stroke-linecap="butt" stroke-linejoin="miter" stroke-miterlimit="10" stroke-dasharray="" stroke-dashoffset="0" font-family="none" font-weight="none" font-size="none" text-anchor="none" style="mix-blend-mode: normal" data-fill-palette-color="tertiary"></path></g><g transform="matrix(1,0,0,1,102.23403688490664,90)"><svg viewBox="0 0 115.53192623018671 180" height="180" width="115.53192623018671"><g><svg viewBox="0 0 115.53192623018671 180" height="180" width="115.53192623018671"><g><svg viewBox="0 0 192 299.1380921940346" height="180" width="115.53192623018671"><g transform="matrix(1,0,0,1,0,178.94956024444406)"><svg viewBox="0 0 192 120.18853194959055" height="120.18853194959055" width="192"><g><svg viewBox="0 0 192 120.18853194959055" height="120.18853194959055" width="192"><g><svg viewBox="0 0 192 88.05274725274725" height="88.05274725274725" width="192"><g transform="matrix(1,0,0,1,0,0)"><svg width="192" viewBox="4.199999809265137 -30.489999771118164 66.63999938964844 30.559999465942383" height="88.05274725274725" data-palette-color="#636365"><path d="M5.96 0.07Q4.2 0.07 4.2-0.88L4.2-0.88 4.2-29.52Q4.2-30.49 5.96-30.49L5.96-30.49 6.3-30.49Q8.03-30.49 8.03-29.52L8.03-29.52 8.03-16.24 8.2-16.24 18.87-29.86Q19.17-30.18 19.81-30.33 20.46-30.49 21.24-30.49L21.24-30.49 21.66-30.49Q22.39-30.49 22.78-30.32 23.17-30.15 23.17-29.91L23.17-29.91Q23.17-29.52 22.75-29.03L22.75-29.03 11.91-15.5 25.05-1.22Q25.44-0.81 25.44-0.54L25.44-0.54Q25.44-0.17 25.01-0.05 24.58 0.07 23.54 0.07L23.54 0.07 23 0.07Q22.07 0.07 21.52-0.02 20.97-0.12 20.63-0.49L20.63-0.49 8.2-14.45 8.03-14.45 8.03-0.88Q8.03 0.07 6.3 0.07L6.3 0.07 5.96 0.07ZM36.94 0.07Q35.2 0.07 35.2-0.88L35.2-0.88 35.2-15.58 26.12-28.96Q25.78-29.42 25.78-29.74L25.78-29.74Q25.78-30.49 27.78-30.49L27.78-30.49 28.24-30.49Q28.98-30.49 29.43-30.35 29.88-30.2 30.12-29.83L30.12-29.83 37.25-19.17 44.53-29.86Q44.92-30.49 46.48-30.49L46.48-30.49 46.77-30.49Q47.68-30.44 48.08-30.26 48.48-30.08 48.48-29.74L48.48-29.74Q48.48-29.52 48.12-28.96L48.12-28.96 39.04-15.45 39.04-0.88Q39.04 0.07 37.28 0.07L37.28 0.07 36.94 0.07ZM54.78 0Q54.1 0 53.78-0.32 53.46-0.63 53.46-1.29L53.46-1.29 53.46-29.08Q53.46-29.76 53.78-30.07 54.1-30.37 54.78-30.37L54.78-30.37 69.92-30.37Q70.38-30.37 70.59-30.08 70.8-29.79 70.8-29.08L70.8-29.08 70.8-28.37Q70.8-27.71 70.59-27.39 70.38-27.08 69.92-27.08L69.92-27.08 57.29-27.08 57.29-17.19 68.62-17.19Q69.09-17.19 69.29-16.87 69.5-16.55 69.5-15.87L69.5-15.87 69.5-15.21Q69.5-14.53 69.29-14.22 69.09-13.92 68.62-13.92L68.62-13.92 57.29-13.92 57.29-3.3 69.97-3.3Q70.43-3.3 70.64-2.99 70.84-2.69 70.84-2L70.84-2 70.84-1.29Q70.84-0.63 70.64-0.32 70.43 0 69.97 0L69.97 0 54.78 0Z" opacity="1" transform="matrix(1,0,0,1,0,0)" fill="#636365" class="undefined-text-0" data-fill-palette-color="primary" id="text-0"></path></svg></g></svg></g><g transform="matrix(1,0,0,1,0,100.90175634285714)"><svg viewBox="0 0 192 19.286775606733414" height="19.286775606733414" width="192"><g transform="matrix(1,0,0,1,0,0)"><svg width="192" viewBox="4.489999771118164 -35.79999923706055 456.52557373046875 45.86281967163086" height="19.286775606733414" data-palette-color="#636365"><path d="M27.8-0.9L15.1-17.05 9.9-12.75Q9.95-6.9 10.15-2.6L10.15-2.6Q10.2-1.55 9.53-0.78 8.85 0 7.8 0.05 6.75 0.1 5.98-0.58 5.2-1.25 5.15-2.3L5.15-2.3Q5-5.3 4.95-8.2L4.95-8.2Q4.9-11.8 4.9-15.55 4.9-19.3 4.85-21.4L4.85-21.4Q4.85-22.7 4.65-26.78 4.45-30.85 4.5-33.3L4.5-33.3Q4.5-34.35 5.25-35.05 6-35.75 7.05-35.75 8.1-35.75 8.8-35 9.5-34.25 9.5-33.2L9.5-33.2Q9.45-30.8 9.65-26.8 9.85-22.8 9.85-21.5L9.85-21.5Q9.85-20.4 9.9-19.15L9.9-19.15Q17.75-25.7 26.2-34.9L26.2-34.9Q26.9-35.65 27.95-35.7 29-35.75 29.75-35.05 30.5-34.35 30.55-33.3 30.6-32.25 29.9-31.5L29.9-31.5Q24.3-25.3 18.85-20.35L18.85-20.35 31.7-4Q32.35-3.2 32.23-2.18 32.1-1.15 31.3-0.5 30.5 0.15 29.48 0.03 28.45-0.1 27.8-0.9L27.8-0.9ZM38.15 0L38.15 0Q37.15 0 36.4-0.68 35.65-1.35 35.65-2.5L35.65-2.5Q35.65-6.45 35.6-9.3L35.6-9.3Q35.5-17.8 35.5-24.05L35.5-24.05Q35.5-25.2 36.2-25.85 36.9-26.5 37.9-26.5L37.9-26.5Q38.95-26.5 39.72-25.83 40.5-25.15 40.5-23.95L40.5-23.95 40.5-22.4Q43.6-26.45 48.65-26.45L48.65-26.45Q53-26.45 55.32-23.4 57.65-20.35 57.65-15.2L57.65-15.2Q57.65-9.5 57.5-7.7L57.5-7.7 57.25-4.35 57.1-2.2Q57-1.2 56.3-0.6 55.6 0 54.65 0L54.65 0Q53.65 0 52.9-0.68 52.15-1.35 52.15-2.5L52.15-2.5Q52.15-3.3 52.5-8.05L52.5-8.05Q52.75-11.3 52.75-13.15L52.75-13.15Q52.75-17.4 51.55-19.43 50.35-21.45 47.85-21.45L47.85-21.45Q46.05-21.45 44.12-20.35 42.2-19.25 40.5-17.55L40.5-17.55 40.6-10.45 40.65-2.5Q40.65-1.35 39.9-0.68 39.15 0 38.15 0L38.15 0ZM77.3-0.35L77.3-0.35Q70.7 1.25 66.75-3L66.75-3Q63.6-6.25 62.85-11.35L62.85-11.35Q62.3-15.35 63.8-18.95L63.8-18.95Q65.6-23.55 69.5-25.75L69.5-25.75Q70.3-26.2 71.5-26.4L71.5-26.4Q71.55-26.4 72.2-26.45L72.2-26.45Q72.45-26.5 72.6-26.55L72.6-26.55Q73.35-26.7 74.1-26.4L74.1-26.4Q74.3-26.4 75.05-26.38 75.8-26.35 76.05-26.33 76.3-26.3 76.92-26.23 77.55-26.15 77.95-26.05L77.95-26.05 78.9-25.7Q79.5-25.5 80.05-25.2 80.6-24.9 81.25-24.5L81.25-24.5Q84.5-22.3 85.75-18.32 87-14.35 86.4-11.9L86.4-11.9Q85.95-9.2 84.8-6.88 83.65-4.55 81.62-2.75 79.6-0.95 77.3-0.35L77.3-0.35ZM75.75-5.55L75.75-5.55Q77.9-5.85 79.42-7.78 80.95-9.7 81.42-11.85 81.9-14 81.07-16.57 80.25-19.15 78.45-20.3L78.45-20.3Q77.9-20.7 77.55-20.88 77.2-21.05 76.72-21.18 76.25-21.3 75.97-21.3 75.7-21.3 74.8-21.35 73.9-21.4 73.2-21.45L73.2-21.45Q73.05-21.45 72.85-21.5L72.85-21.5Q72.3-21.45 72.25-21.45L72.25-21.45 71.9-21.35Q69.7-20.15 68.52-17.53 67.35-14.9 67.85-12.1L67.85-12.1Q68.4-8.7 70.3-6.95L70.3-6.95Q72.35-5.05 75.75-5.55L75.75-5.55ZM98.29 0L98.29 0Q97.34 0 96.59-0.5 95.84-1 95.59-1.8L95.59-1.8Q94.84-4.45 92.24-12.25L92.24-12.25Q89.99-18.95 88.94-23.3L88.94-23.3Q88.54-24.45 89.32-25.43 90.09-26.4 91.44-26.4L91.44-26.4Q93.34-26.4 93.84-24.4L93.84-24.4Q95.19-19.45 97.09-13.85L97.09-13.85Q97.84-11.5 98.09-9.95L98.09-9.95 99.24-13.45 99.94-15.55Q99.89-15.4 101.04-19L101.04-19Q101.34-19.9 101.64-20.88 101.94-21.85 102.29-22.85L102.29-22.85Q103.14-25.2 105.29-25.2L105.29-25.2Q106.34-25.2 107.02-24.6 107.69-24 108.19-22.6L108.19-22.6Q110.54-16 112.69-8.55L112.69-8.55 113.79-13.05Q114.19-14.85 114.69-16.95L114.69-16.95Q115.69-21.15 116.64-24.4L116.64-24.4Q116.89-25.35 117.54-25.9 118.19-26.45 118.99-26.45L118.99-26.45Q120.24-26.45 120.94-25.5 121.64-24.55 121.24-23.25L121.24-23.25Q121.19-23.15 120.84-21.45L120.84-21.45Q120.29-19 119.59-16.45L119.59-16.45 118.49-12.45Q116.59-5.35 115.74-2.85L115.74-2.85Q114.64 0 112.69 0L112.69 0Q111.64 0 110.84-0.65 110.04-1.3 109.64-2.45L109.64-2.45 108.84-4.9Q107.69-8.3 104.84-16.95L104.84-16.95 103.99-13.95Q101.69-6.05 101.19-3.8L101.19-3.8Q100.74-1.9 99.99-0.95 99.24 0 98.29 0L98.29 0ZM138.24 10.05L138.24 10.05Q137.19 10.15 136.39 9.47 135.59 8.8 135.49 7.78 135.39 6.75 136.06 5.95 136.74 5.15 137.74 5.05L137.74 5.05Q138.24 5 138.94 4.95 139.64 4.9 139.86 4.88 140.09 4.85 140.44 4.78 140.79 4.7 140.99 4.55L140.99 4.55 141.49 4.25Q142.69 3.65 143.64 0.9L143.64 0.9Q143.94 0.05 144.24-0.3L144.24-0.3Q143.89-0.7 143.69-1.25L143.69-1.25Q142.79-5.1 139.99-12.65L139.99-12.65Q137.49-19.3 136.29-23.3L136.29-23.3Q135.99-24.3 136.49-25.2 136.99-26.1 137.99-26.4 138.99-26.7 139.89-26.2 140.79-25.7 141.09-24.7L141.09-24.7Q142.04-21.5 144.69-14.4L144.69-14.4 146.59-9.2Q150.09-19.9 152.99-25.25L152.99-25.25Q153.49-26.15 154.49-26.45 155.49-26.75 156.39-26.25 157.29-25.75 157.59-24.75 157.89-23.75 157.39-22.85L157.39-22.85Q156.09-20.45 154.69-17 153.29-13.55 152.49-11.2 151.69-8.85 150.39-4.65L150.39-4.65Q150.09-3.65 149.99-3.25L149.99-3.25Q149.74-2.6 149.29-0.65L149.29-0.65Q148.74 1.2 148.39 2.35L148.39 2.35Q146.99 6.25 144.59 8.15L144.59 8.15Q143.89 8.7 143.19 9.08 142.49 9.45 141.71 9.63 140.94 9.8 140.49 9.88 140.04 9.95 139.21 9.98 138.39 10 138.24 10.05L138.24 10.05ZM173.69-0.35L173.69-0.35Q167.09 1.25 163.14-3L163.14-3Q159.99-6.25 159.24-11.35L159.24-11.35Q158.69-15.35 160.19-18.95L160.19-18.95Q161.99-23.55 165.89-25.75L165.89-25.75Q166.69-26.2 167.89-26.4L167.89-26.4Q167.94-26.4 168.59-26.45L168.59-26.45Q168.84-26.5 168.99-26.55L168.99-26.55Q169.74-26.7 170.49-26.4L170.49-26.4Q170.69-26.4 171.44-26.38 172.19-26.35 172.44-26.33 172.69-26.3 173.31-26.23 173.94-26.15 174.34-26.05L174.34-26.05 175.29-25.7Q175.89-25.5 176.44-25.2 176.99-24.9 177.64-24.5L177.64-24.5Q180.89-22.3 182.14-18.32 183.39-14.35 182.79-11.9L182.79-11.9Q182.34-9.2 181.19-6.88 180.04-4.55 178.01-2.75 175.99-0.95 173.69-0.35L173.69-0.35ZM172.14-5.55L172.14-5.55Q174.29-5.85 175.81-7.78 177.34-9.7 177.81-11.85 178.29-14 177.46-16.57 176.64-19.15 174.84-20.3L174.84-20.3Q174.29-20.7 173.94-20.88 173.59-21.05 173.11-21.18 172.64-21.3 172.36-21.3 172.09-21.3 171.19-21.35 170.29-21.4 169.59-21.45L169.59-21.45Q169.44-21.45 169.24-21.5L169.24-21.5Q168.69-21.45 168.64-21.45L168.64-21.45 168.29-21.35Q166.09-20.15 164.91-17.53 163.74-14.9 164.24-12.1L164.24-12.1Q164.79-8.7 166.69-6.95L166.69-6.95Q168.74-5.05 172.14-5.55L172.14-5.55ZM206.93 0L206.93 0Q206.03-0.05 205.36-0.7 204.68-1.35 204.58-2.9L204.58-2.9Q202.28-0.9 199.83-0.3L199.83-0.3Q196.33 0.6 193.43-1.45L193.43-1.45Q190.63-3.45 189.03-8.05L189.03-8.05Q188.48-9.65 188.18-11.35L188.18-11.35Q187.88-13.1 187.91-15.08 187.93-17.05 187.98-18.28 188.03-19.5 188.23-21.63 188.43-23.75 188.48-24.3L188.48-24.3Q188.58-25.3 189.36-25.98 190.13-26.65 191.16-26.58 192.18-26.5 192.86-25.73 193.53-24.95 193.48-23.9L193.48-23.9Q193.43-23.15 193.21-21.05 192.98-18.95 192.96-17.93 192.93-16.9 192.91-15.23 192.88-13.55 193.11-12.23 193.33-10.9 193.73-9.65L193.73-9.65Q194.83-6.6 196.53-5.5L196.53-5.5Q197.23-5.05 198.83-5.05L198.83-5.05Q200.98-5.4 202.31-6.3 203.63-7.2 204.78-10.4L204.78-10.4Q204.88-17.05 204.63-23.9L204.63-23.9Q204.58-24.95 205.31-25.7 206.03-26.45 207.06-26.5 208.08-26.55 208.83-25.83 209.58-25.1 209.63-24.1L209.63-24.1Q210.03-12.3 209.58-2.35L209.58-2.35Q209.53-1.35 208.76-0.65 207.98 0.05 206.93 0L206.93 0ZM218.98 0L218.98 0Q217.98 0 217.23-0.68 216.48-1.35 216.48-2.5L216.48-2.5 216.38-12.7Q216.33-16.15 216.33-21.3L216.33-21.3 216.33-24.25Q216.33-25.4 217.03-26.05 217.73-26.7 218.73-26.7L218.73-26.7Q219.78-26.7 220.56-26.03 221.33-25.35 221.33-24.15L221.33-24.15 221.33-22.65Q221.88-23.85 223.38-24.7L223.38-24.7Q225.43-25.95 227.88-25.95L227.88-25.95Q229.73-25.95 230.73-25.35 231.73-24.75 231.73-23.2L231.73-23.2Q231.73-22.2 231.13-21.53 230.53-20.85 229.38-20.85L229.38-20.85Q225.18-20.85 223.58-19.7L223.58-19.7Q222.68-19.1 222.01-18.25 221.33-17.4 221.33-16.6L221.33-16.6 221.43-10.35 221.48-2.5Q221.48-1.35 220.73-0.68 219.98 0 218.98 0L218.98 0ZM260.23 0.25L260.23 0.25Q256.53 0 253.78-1.25 251.03-2.5 249.58-4.4 248.13-6.3 247.48-7.9 246.83-9.5 246.68-11.08 246.53-12.65 246.83-15.15L246.83-15.15Q247.18-17.25 248.3-19.3 249.43-21.35 251.3-22.98 253.18-24.6 255.83-25.48 258.48-26.35 261.48-26L261.48-26Q264.38-25.65 266.43-24.43 268.48-23.2 269.93-21.3L269.93-21.3Q271.18-19.7 271.45-18.9 271.73-18.1 271.95-17.4 272.18-16.7 272.33-16.2 272.48-15.7 272.6-15.18 272.73-14.65 272.78-13.95L272.78-13.95Q272.83-13 272.43-12.2 272.03-11.4 271.23-10.95L271.23-10.95Q270.58-10.7 269.83-10.7L269.83-10.7 261.28-10.55Q252.28-10.5 252.28-10.35L252.28-10.35 252.13-10.35Q252.78-7.8 254.85-6.35 256.93-4.9 260.53-4.65L260.53-4.65Q262.48-4.55 263.78-4.85L263.78-4.85Q265.23-5.25 265.88-5.58 266.53-5.9 267.48-6.45L267.48-6.45Q268.43-6.8 269.38-6.35 270.33-5.9 270.68-4.95 271.03-4 270.6-3.1 270.18-2.2 269.28-1.7L269.28-1.7Q268.48-1.25 267.63-0.93 266.78-0.6 265.13-0.15 263.48 0.3 260.23 0.25L260.23 0.25ZM252.23-15.25L252.23-15.25Q255.13-15.4 267.28-15.55L267.28-15.55Q266.83-17.05 265.83-18.4L265.83-18.4Q263.83-20.7 260.88-21.05L260.88-21.05Q257.78-21.45 255.43-19.73 253.08-18 252.23-15.25L252.23-15.25ZM307.87-2.2L307.87-2.2Q307.82-3.1 307.75-3.88 307.67-4.65 307.65-5.03 307.62-5.4 307.6-5.68 307.57-5.95 307.57-6.3L307.57-6.3 307.57-9.15Q307.57-9.95 307.65-11.98 307.72-14 307.7-15.4 307.67-16.8 307.42-18.05L307.42-18.05Q307.12-19.8 306.37-20.58 305.62-21.35 304.07-21.35L304.07-21.35Q300.62-21.3 297.17-17.15L297.17-17.15Q297.32-15.65 297.32-11.35L297.32-11.35Q297.32-8.2 297.47-2.55L297.47-2.55Q297.52-1.55 296.8-0.8 296.07-0.05 295.05 0 294.02 0.05 293.27-0.68 292.52-1.4 292.47-2.45L292.47-2.45Q292.32-8.1 292.32-11.35L292.32-11.35 292.32-13.85Q292.32-14.1 292.3-14.9 292.27-15.7 292.25-16.07 292.22-16.45 292.15-17.07 292.07-17.7 292-18.18 291.92-18.65 291.77-19.1L291.77-19.1Q291.37-20.5 290.67-21.05L290.67-21.05Q289.92-21.65 288.42-21.5L288.42-21.5Q286.77-21.35 285.57-20.6L285.57-20.6Q284.42-19.85 283.22-18.2L283.22-18.2Q282.97-17.9 282.67-17.65L282.67-17.65Q282.87-7.65 282.67-2.4L282.67-2.4Q282.62-1.35 281.87-0.65 281.12 0.05 280.07 0 279.02-0.05 278.32-0.8 277.62-1.55 277.67-2.6L277.67-2.6Q277.77-8.15 277.77-9.73 277.77-11.3 277.65-16.98 277.52-22.65 277.52-24.25L277.52-24.25Q277.52-25 278.25-25.75 278.97-26.5 279.97-26.5 280.97-26.5 281.77-25.88 282.57-25.25 282.52-23.55L282.52-23.55Q284.77-26.2 288.02-26.5L288.02-26.5Q291.47-26.8 293.77-24.95L293.77-24.95Q294.97-24 295.92-22.3L295.92-22.3Q299.02-26.2 304.07-26.5L304.07-26.5Q307.77-26.55 310.02-24.2L310.02-24.2Q311.77-22.15 312.37-18.95L312.37-18.95Q312.62-17.45 312.67-15.68 312.72-13.9 312.65-11.68 312.57-9.45 312.57-9.15L312.57-9.15 312.57-6.4Q312.57-6.15 312.6-5.9 312.62-5.65 312.65-5.33 312.67-5 312.72-4.25 312.77-3.5 312.87-2.6L312.87-2.6Q312.92-1.55 312.25-0.78 311.57 0 310.55 0.08 309.52 0.15 308.75-0.53 307.97-1.2 307.87-2.2L307.87-2.2ZM323.87 7.55L323.87 7.55Q323.87 8.6 323.12 9.3 322.37 10 321.32 10 320.27 10 319.57 9.25 318.87 8.5 318.87 7.45L318.87 7.45Q319.07-2.4 319.07-24L319.07-24Q319.07-25.05 319.8-25.78 320.52-26.5 321.57-26.5L321.57-26.5Q322.32-26.5 322.95-25.83 323.57-25.15 323.87-24.15L323.87-24.15 324.57-24.6Q327.57-26.4 330.52-26.55 333.47-26.7 335.82-25.25L335.82-25.25Q338.02-24 339.55-21.75 341.07-19.5 341.77-16.85L341.77-16.85Q342.32-14.95 342.37-12.8 342.42-10.65 341.82-8.8 341.22-6.95 340.07-5.15 338.92-3.35 336.85-2 334.77-0.65 332.07-0.15L332.07-0.15Q327.42 0.7 324.02-1.75L324.02-1.75Q323.97 2.9 323.87 7.55L323.87 7.55ZM331.17-5.05L331.17-5.05Q334.97-5.75 336.5-8.68 338.02-11.6 336.97-15.55L336.97-15.55Q335.92-19.45 333.32-20.9L333.32-20.9Q330.67-22.45 327.17-20.3L327.17-20.3Q325.57-19.35 325.32-19.05L325.32-19.05Q325.17-18.9 325.07-18.78 324.97-18.65 324.72-18.2L324.72-18.2 324.07-17.3 324.07-9.1Q324.32-8.85 324.47-8.55L324.47-8.55Q325.87-6.35 327.42-5.5 328.97-4.65 331.17-5.05L331.17-5.05ZM352.62-2.4L352.62-2.4Q352.57-1.35 351.82-0.65 351.07 0.05 350.02 0 348.97-0.05 348.27-0.8 347.57-1.55 347.62-2.6L347.62-2.6Q347.82-9.25 347.82-12.7 347.82-16.15 347.72-23 347.62-29.85 347.62-33.3L347.62-33.3Q347.62-34.35 348.34-35.08 349.07-35.8 350.12-35.8 351.17-35.8 351.89-35.08 352.62-34.35 352.62-33.3L352.62-33.3Q352.62-29.85 352.72-23.5 352.82-17.15 352.79-11.98 352.77-6.8 352.62-2.4L352.62-2.4ZM372.27-0.35L372.27-0.35Q365.67 1.25 361.72-3L361.72-3Q358.56-6.25 357.81-11.35L357.81-11.35Q357.27-15.35 358.77-18.95L358.77-18.95Q360.56-23.55 364.47-25.75L364.47-25.75Q365.27-26.2 366.47-26.4L366.47-26.4Q366.52-26.4 367.17-26.45L367.17-26.45Q367.42-26.5 367.56-26.55L367.56-26.55Q368.31-26.7 369.06-26.4L369.06-26.4Q369.27-26.4 370.02-26.38 370.77-26.35 371.02-26.33 371.27-26.3 371.89-26.23 372.52-26.15 372.92-26.05L372.92-26.05 373.87-25.7Q374.47-25.5 375.02-25.2 375.56-24.9 376.22-24.5L376.22-24.5Q379.47-22.3 380.72-18.32 381.97-14.35 381.37-11.9L381.37-11.9Q380.92-9.2 379.77-6.88 378.62-4.55 376.59-2.75 374.56-0.95 372.27-0.35L372.27-0.35ZM370.72-5.55L370.72-5.55Q372.87-5.85 374.39-7.78 375.92-9.7 376.39-11.85 376.87-14 376.04-16.57 375.22-19.15 373.42-20.3L373.42-20.3Q372.87-20.7 372.52-20.88 372.17-21.05 371.69-21.18 371.22-21.3 370.94-21.3 370.67-21.3 369.77-21.35 368.87-21.4 368.17-21.45L368.17-21.45Q368.02-21.45 367.81-21.5L367.81-21.5Q367.27-21.45 367.22-21.45L367.22-21.45 366.87-21.35Q364.67-20.15 363.49-17.53 362.31-14.9 362.81-12.1L362.81-12.1Q363.37-8.7 365.27-6.95L365.27-6.95Q367.31-5.05 370.72-5.55L370.72-5.55ZM386.31 10.05L386.31 10.05Q385.26 10.15 384.46 9.47 383.66 8.8 383.56 7.78 383.46 6.75 384.14 5.95 384.81 5.15 385.81 5.05L385.81 5.05Q386.31 5 387.01 4.95 387.71 4.9 387.94 4.88 388.16 4.85 388.51 4.78 388.86 4.7 389.06 4.55L389.06 4.55 389.56 4.25Q390.76 3.65 391.71 0.9L391.71 0.9Q392.01 0.05 392.31-0.3L392.31-0.3Q391.96-0.7 391.76-1.25L391.76-1.25Q390.86-5.1 388.06-12.65L388.06-12.65Q385.56-19.3 384.36-23.3L384.36-23.3Q384.06-24.3 384.56-25.2 385.06-26.1 386.06-26.4 387.06-26.7 387.96-26.2 388.86-25.7 389.16-24.7L389.16-24.7Q390.11-21.5 392.76-14.4L392.76-14.4 394.66-9.2Q398.16-19.9 401.06-25.25L401.06-25.25Q401.56-26.15 402.56-26.45 403.56-26.75 404.46-26.25 405.36-25.75 405.66-24.75 405.96-23.75 405.46-22.85L405.46-22.85Q404.16-20.45 402.76-17 401.36-13.55 400.56-11.2 399.76-8.85 398.46-4.65L398.46-4.65Q398.16-3.65 398.06-3.25L398.06-3.25Q397.81-2.6 397.36-0.65L397.36-0.65Q396.81 1.2 396.46 2.35L396.46 2.35Q395.06 6.25 392.66 8.15L392.66 8.15Q391.96 8.7 391.26 9.08 390.56 9.45 389.79 9.63 389.01 9.8 388.56 9.88 388.11 9.95 387.29 9.98 386.46 10 386.31 10.05L386.31 10.05ZM418.81 0.25L418.81 0.25Q415.11 0 412.36-1.25 409.61-2.5 408.16-4.4 406.71-6.3 406.06-7.9 405.41-9.5 405.26-11.08 405.11-12.65 405.41-15.15L405.41-15.15Q405.76-17.25 406.89-19.3 408.01-21.35 409.89-22.98 411.76-24.6 414.41-25.48 417.06-26.35 420.06-26L420.06-26Q422.96-25.65 425.01-24.43 427.06-23.2 428.51-21.3L428.51-21.3Q429.76-19.7 430.04-18.9 430.31-18.1 430.54-17.4 430.76-16.7 430.91-16.2 431.06-15.7 431.19-15.18 431.31-14.65 431.36-13.95L431.36-13.95Q431.41-13 431.01-12.2 430.61-11.4 429.81-10.95L429.81-10.95Q429.16-10.7 428.41-10.7L428.41-10.7 419.86-10.55Q410.86-10.5 410.86-10.35L410.86-10.35 410.71-10.35Q411.36-7.8 413.44-6.35 415.51-4.9 419.11-4.65L419.11-4.65Q421.06-4.55 422.36-4.85L422.36-4.85Q423.81-5.25 424.46-5.58 425.11-5.9 426.06-6.45L426.06-6.45Q427.01-6.8 427.96-6.35 428.91-5.9 429.26-4.95 429.61-4 429.19-3.1 428.76-2.2 427.86-1.7L427.86-1.7Q427.06-1.25 426.21-0.93 425.36-0.6 423.71-0.15 422.06 0.3 418.81 0.25L418.81 0.25ZM410.81-15.25L410.81-15.25Q413.71-15.4 425.86-15.55L425.86-15.55Q425.41-17.05 424.41-18.4L424.41-18.4Q422.41-20.7 419.46-21.05L419.46-21.05Q416.36-21.45 414.01-19.73 411.66-18 410.81-15.25L410.81-15.25ZM448.46 0.25L448.46 0.25Q444.76 0 442.01-1.25 439.26-2.5 437.81-4.4 436.36-6.3 435.71-7.9 435.06-9.5 434.91-11.08 434.76-12.65 435.06-15.15L435.06-15.15Q435.41-17.25 436.53-19.3 437.66-21.35 439.53-22.98 441.41-24.6 444.06-25.48 446.71-26.35 449.71-26L449.71-26Q452.61-25.65 454.66-24.43 456.71-23.2 458.16-21.3L458.16-21.3Q459.41-19.7 459.68-18.9 459.96-18.1 460.18-17.4 460.41-16.7 460.56-16.2 460.71-15.7 460.83-15.18 460.96-14.65 461.01-13.95L461.01-13.95Q461.06-13 460.66-12.2 460.26-11.4 459.46-10.95L459.46-10.95Q458.81-10.7 458.06-10.7L458.06-10.7 449.51-10.55Q440.51-10.5 440.51-10.35L440.51-10.35 440.36-10.35Q441.01-7.8 443.08-6.35 445.16-4.9 448.76-4.65L448.76-4.65Q450.71-4.55 452.01-4.85L452.01-4.85Q453.46-5.25 454.11-5.58 454.76-5.9 455.71-6.45L455.71-6.45Q456.66-6.8 457.61-6.35 458.56-5.9 458.91-4.95 459.26-4 458.83-3.1 458.41-2.2 457.51-1.7L457.51-1.7Q456.71-1.25 455.86-0.93 455.01-0.6 453.36-0.15 451.71 0.3 448.46 0.25L448.46 0.25ZM440.46-15.25L440.46-15.25Q443.36-15.4 455.51-15.55L455.51-15.55Q455.06-17.05 454.06-18.4L454.06-18.4Q452.06-20.7 449.11-21.05L449.11-21.05Q446.01-21.45 443.66-19.73 441.31-18 440.46-15.25L440.46-15.25Z" opacity="1" transform="matrix(1,0,0,1,0,0)" fill="#636365" class="undefined-text-1" data-fill-palette-color="secondary" id="text-1"></path></svg></g></svg></g></svg></g></svg></g><g transform="matrix(1,0,0,1,38.714837043917164,0)"><svg viewBox="0 0 114.57032591216567 166.10055115433417" height="166.10055115433417" width="114.57032591216567"><g><svg xmlns="http://www.w3.org/2000/svg" xmlns:xlink="http://www.w3.org/1999/xlink" version="1.1" x="0" y="0" viewBox="7.881048679351807 0.5 32.418949127197266 47" enable-background="new 0 0 48 48" xml:space="preserve" height="166.10055115433417" width="114.57032591216567" class="icon-icon-0" data-fill-palette-color="accent" id="icon-0"><g fill="#636365" data-fill-palette-color="accent"><path fill="#636365" d="M39.4 46.4c-0.6 0.7-1.6 1.1-2.5 1.1H11.2c-1 0-1.9-0.4-2.5-1.1-0.6-0.7-0.9-1.7-0.8-2.6l1.6-11.8c0.4-1.7 1.3-3.2 2.6-4.4 1.2-1.2 2.7-2.1 4.3-2.5l0.8-0.2 4.1 8c0.1 0.1 0.1 0.3 0.1 0.5h5.4c0-0.2 0-0.3 0.1-0.5l4.1-8 0.8 0.2c1.6 0.4 3.1 1.3 4.3 2.5 1.2 1.2 2.1 2.7 2.6 4.4l0 0.1 1.6 11.7C40.3 44.7 40 45.7 39.4 46.4zM25 40V27.6c0-0.6-0.4-1-1-1-0.6 0-1 0.4-1 1V40c0 0.6 0.4 1 1 1C24.6 41 25 40.5 25 40z" data-fill-palette-color="accent"></path><path fill="#636365" d="M25.9 0.5h-3.9c-3.6 0-6.6 3.4-6.6 7.6 0 5.8 3.8 12.7 8.6 12.7s8.6-7 8.6-12.8C32.5 3.9 29.6 0.5 25.9 0.5z" data-fill-palette-color="accent"></path></g></svg></g></svg></g><g></g></svg></g></svg></g></svg></g></svg></g><defs></defs></svg><rect width="320" height="360" fill="none" stroke="none" visibility="hidden"></rect></g></svg></g></svg>